<svg width="47" height="49" viewBox="0 0 47 49" fill="none" xmlns="http://www.w3.org/2000/svg">
<g clip-path="url(#clip0_180_1133)">
<path d="M1.10964 17.272C0.38977 19.5753 -9.17807e-05 22.029 1.62072e-08 24.5761C-9.17807e-05 27.1233 0.389861 29.5772 1.10973 31.8805L23.5 32.9241L45.8903 31.8806C46.61 29.5773 47.0001 27.1233 47.0001 24.5763C47 22.0291 46.6101 19.5753 45.8903 17.272L23.5 16.2285L1.10964 17.272Z" fill="#F0F0F0"/>
<path d="M45.8902 17.272L23.4999 16.2286L1.10956 17.272C0.896223 17.9549 0.712537 18.6512 0.558594 19.359H46.4409C46.2871 18.6511 46.1035 17.9547 45.8902 17.272Z" fill="#D80027"/>
<path d="M0.558594 29.7936C0.712354 30.5014 0.896039 31.1976 1.10938 31.8805L1.11158 31.8805L23.4996 32.924L45.8898 31.8805C46.1032 31.1977 46.2868 30.5014 46.4407 29.7936H0.558594Z" fill="#D80027"/>
<path d="M23.4995 48.5762C33.9842 48.5762 42.8637 41.5634 45.8898 31.8806H1.10938C4.13546 41.5633 13.0152 48.5762 23.4995 48.5762Z" fill="#6DA544"/>
<path d="M23.4996 0.576385C13.0152 0.576479 4.13564 7.58926 1.10938 17.272L45.8898 17.2721C42.8639 7.58917 33.9843 0.576292 23.4996 0.576385Z" fill="#338AF3"/>
<path d="M10.7391 10.4898C10.7391 8.242 12.2859 6.36419 14.3516 5.9035C14.0342 5.83262 13.7047 5.79428 13.3664 5.79428C10.8271 5.79428 8.76855 7.89653 8.76855 10.4899C8.76855 13.0833 10.8269 15.1856 13.3664 15.1856C13.7047 15.1856 14.0341 15.1472 14.3516 15.0764C12.286 14.6155 10.7391 12.7377 10.7391 10.4898Z" fill="#F0F0F0"/>
<path d="M17.0695 12.6238L17.3807 13.6021H18.3879L17.5731 14.2068L17.8843 15.1851L17.0695 14.5805L16.2546 15.1851L16.5659 14.2068L15.751 13.6021H16.7582L17.0695 12.6238Z" fill="#F0F0F0"/>
<path d="M20.2842 12.6238L20.5955 13.6021H21.6027L20.7878 14.2068L21.0991 15.1851L20.2842 14.5805L19.4693 15.1851L19.7806 14.2068L18.9658 13.6021H19.9729L20.2842 12.6238Z" fill="#F0F0F0"/>
<path d="M23.4983 12.6238L23.8094 13.6021H24.8167L24.0019 14.2068L24.313 15.1851L23.4983 14.5805L22.6833 15.1851L22.9947 14.2068L22.1797 13.6021H23.187L23.4983 12.6238Z" fill="#F0F0F0"/>
<path d="M26.7131 12.6238L27.0244 13.6021H28.0315L27.2167 14.2068L27.528 15.1851L26.7131 14.5805L25.8981 15.1851L26.2095 14.2068L25.3945 13.6021H26.4017L26.7131 12.6238Z" fill="#F0F0F0"/>
<path d="M29.9287 12.6238L30.24 13.6021H31.2472L30.4324 14.2068L30.7437 15.1851L29.9287 14.5805L29.1139 15.1851L29.4251 14.2068L28.6104 13.6021H29.6175L29.9287 12.6238Z" fill="#F0F0F0"/>
<path d="M20.2842 9.2088L20.5955 10.187H21.6027L20.7878 10.7918L21.0991 11.77L20.2842 11.1654L19.4693 11.77L19.7806 10.7918L18.9658 10.187H19.9729L20.2842 9.2088Z" fill="#F0F0F0"/>
<path d="M23.4983 9.2088L23.8094 10.187H24.8167L24.0019 10.7918L24.313 11.77L23.4983 11.1654L22.6833 11.77L22.9947 10.7918L22.1797 10.187H23.187L23.4983 9.2088Z" fill="#F0F0F0"/>
<path d="M26.7131 9.2088L27.0244 10.187H28.0315L27.2167 10.7918L27.528 11.77L26.7131 11.1654L25.8981 11.77L26.2095 10.7918L25.3945 10.187H26.4017L26.7131 9.2088Z" fill="#F0F0F0"/>
<path d="M29.9287 9.2088L30.24 10.187H31.2472L30.4324 10.7918L30.7437 11.77L29.9287 11.1654L29.1139 11.77L29.4251 10.7918L28.6104 10.187H29.6175L29.9287 9.2088Z" fill="#F0F0F0"/>
<path d="M23.4983 5.79367L23.8094 6.77205H24.8167L24.0019 7.37664L24.313 8.35501L23.4983 7.75042L22.6833 8.35501L22.9947 7.37664L22.1797 6.77205H23.187L23.4983 5.79367Z" fill="#F0F0F0"/>
<path d="M26.7131 5.79367L27.0244 6.77205H28.0315L27.2167 7.37664L27.528 8.35501L26.7131 7.75042L25.8981 8.35501L26.2095 7.37664L25.3945 6.77205H26.4017L26.7131 5.79367Z" fill="#F0F0F0"/>
<path d="M29.9287 5.79367L30.24 6.77205H31.2472L30.4324 7.37664L30.7437 8.35501L29.9287 7.75042L29.1139 8.35501L29.4251 7.37664L28.6104 6.77205H29.6175L29.9287 5.79367Z" fill="#F0F0F0"/>
</g>
<defs>
<clipPath id="clip0_180_1133">
<rect width="47" height="48" fill="white" transform="translate(0 0.576294)"/>
</clipPath>
</defs>
</svg>
